# xmcd
#
# Track frame offsets: 
#        150
#        17482
#        40426
#        56346
#        72554
#        85010
#        107191
#        129287
#        142435
#        159276
#        172916
#        194628
#        210181
#        226477
#        240596
#        256478
#        270096
#
# Disc length: 3781 seconds
#
# Revision: 0
# Processed by: cddbd v1.5.2PL0 Copyright (c) Steve Scherf et al.
# Submitted via: ExactAudioCopyFreeDBPlugin 1.0
#
DISCID=e50ec311
DTITLE=Various Artist - La Route Du BLUES CD 1, 2013
DYEAR=1900
DGENRE=Blues
TTITLE0=Fleetwood Mac  - Your Love So Bad (1968)
TTITLE1=Chris Rea - Nineties Blues (1992)
TTITLE2=Santana - Black Magic Woman (1970)
TTITLE3=Billy Boy Arnold - I  Wish You Would (1993)
TTITLE4=Albert King - Born Under A Bad Sign (1967)
TTITLE5=The Vaughan Brothers - Tick Tock (1990)
TTITLE6=Canned Heat - On The Road Again (1967)
TTITLE7=Ellas McDaniel (alias Bo Diddley) - I’m A Man (1955)
TTITLE8=Dinah Washington - The Blues Ain’ Nothin’ But A Woman Cryin’ F
TTITLE8=or Her Man (1962)
TTITLE9=Nellie Lutcher - He’s A Real Gone Guy (1947)
TTITLE10=Freddie King - Hide Away (1973)
TTITLE11=Taj Mahal - She Caught The Katy and Left Me A Mule To Ride (196
TTITLE11=8)
TTITLE12=Albert Ammons - Boogie Woogie Stomp (1939)
TTITLE13=Eric Clapton - Draggin’ My Tail (1968)
TTITLE14=Theodore Roosevelt Taylor (alias Hound Dog Taylor - Ain’t Got
TTITLE14=Nobody (1982)
TTITLE15=Nina Simone - Gin House Blues (1961)
TTITLE16=T-Bone Walker - Stormy Monday (1949)
EXTD=
EXTT0=
EXTT1=
EXTT2=
EXTT3=
EXTT4=
EXTT5=
EXTT6=
EXTT7=
EXTT8=
EXTT9=
EXTT10=
EXTT11=
EXTT12=
EXTT13=
EXTT14=
EXTT15=
EXTT16=
PLAYORDER=
